# Blender 4.3.2
# www.blender.org
mtllib mac10.mtl
o fold_stock
v -0.480000 1.270000 0.990000
v -0.480000 1.350000 0.990000
v -0.480000 1.270000 1.049999
v -0.480000 1.285000 1.210000
v -0.480000 1.155000 1.050000
v -0.480000 1.350000 1.049999
v -0.480000 1.155000 1.210000
v -0.480000 1.350000 1.130000
v -0.250000 1.270000 0.990000
v -0.250000 1.350000 0.990000
v -0.250000 1.270000 1.049999
v -0.250000 1.285000 1.210000
v -0.250000 1.155000 1.050000
v -0.250000 1.350000 1.049999
v -0.250000 1.155000 1.210000
v -0.250000 1.350000 1.130000
v -0.300000 1.340000 -1.370001
v -0.300000 1.340000 1.090000
v -0.274019 1.325000 -1.370001
v -0.274019 1.325000 1.090000
v -0.274019 1.295000 -1.370001
v -0.274019 1.295000 1.090000
v -0.300000 1.280000 -1.370001
v -0.300000 1.280000 1.090000
v -0.325981 1.295000 -1.370001
v -0.325981 1.295000 1.090000
v -0.325981 1.325000 -1.370001
v -0.325981 1.325000 1.090000
v -0.440000 1.340000 -1.370001
v -0.440000 1.340000 1.090000
v -0.414019 1.325000 -1.370001
v -0.414019 1.325000 1.090000
v -0.414019 1.295000 -1.370001
v -0.414019 1.295000 1.090000
v -0.440000 1.280000 -1.370001
v -0.440000 1.280000 1.090000
v -0.465981 1.295000 -1.370001
v -0.465981 1.295000 1.090000
v -0.465981 1.325000 -1.370001
v -0.465981 1.325000 1.090000
vn -0.0000 -0.0000 -1.0000
vn -0.0000 -1.0000 -0.0000
vn -0.0000 1.0000 -0.0000
vn -0.0000 0.7761 0.6306
vn -1.0000 -0.0000 -0.0000
vn 1.0000 -0.0000 -0.0000
vn -0.0000 -0.0000 1.0000
vn 0.5000 0.8660 -0.0000
vn 0.5000 -0.8660 -0.0000
vn -0.5000 -0.8660 -0.0000
vn -0.5000 0.8660 -0.0000
vt 0.083827 0.615862
vt 0.044559 0.615862
vt 0.044559 0.602203
vt 0.083827 0.602203
vt 0.055622 0.770283
vt 0.016354 0.770283
vt 0.016354 0.742966
vt 0.055622 0.742966
vt 0.085948 0.686399
vt 0.046680 0.686399
vt 0.046680 0.666764
vt 0.085948 0.666764
vt 0.005290 0.600279
vt 0.044559 0.600279
vt 0.044559 0.610523
vt 0.005290 0.610523
vt 0.005290 0.624182
vt 0.044559 0.624182
vt 0.044559 0.637840
vt 0.005290 0.637840
vt 0.046680 0.656520
vt 0.085948 0.656520
vt 0.032607 0.566986
vt 0.042851 0.566986
vt 0.042851 0.580645
vt 0.032607 0.580645
vt 0.018949 0.566986
vt 0.032607 0.600279
vt 0.005290 0.578084
vt 0.037237 0.719691
vt 0.037237 0.706033
vt 0.047481 0.706033
vt 0.047481 0.719691
vt 0.023578 0.719691
vt 0.009920 0.708594
vt 0.009920 0.686399
vt 0.037237 0.686399
vt 0.042851 0.590182
vt 0.042851 0.567987
vt 0.082119 0.567987
vt 0.082119 0.590182
vt 0.000000 0.968750
vt 0.656250 0.968750
vt 0.656250 1.000000
vt 0.000000 1.000000
vt -0.000000 1.000000
vt 0.628702 0.986280
vt 0.634799 0.975719
vt 0.646994 0.975719
vt 0.653092 0.986280
vt 0.646994 0.996842
vt 0.634799 0.996842
vt 0.657284 0.975719
vt 0.669479 0.960094
vt 0.675577 0.986280
vt 0.669479 0.996842
vt 0.657284 0.996842
vt 0.651186 0.986280
vt 0.586019 0.996842
vt 0.579921 0.986280
vt 0.586019 0.975719
vt 0.598214 0.975719
vt 0.604311 0.986280
vt 0.598214 0.996842
vt 0.602406 0.986280
vt 0.608503 0.975719
vt 0.620698 0.975719
vt 0.626796 0.986280
vt 0.620698 0.996842
vt 0.608503 0.996842
s 0
usemtl mac10
f 9/1/1 1/2/1 2/3/1 10/4/1
f 15/5/2 7/6/2 5/7/2 13/8/2
f 13/9/1 5/10/1 3/11/1 11/12/1
f 10/13/3 2/14/3 6/15/3 14/16/3
f 16/17/4 8/18/4 4/19/4 12/20/4
f 11/12/2 3/11/2 1/21/2 9/22/2
f 14/16/3 6/15/3 8/18/3 16/17/3
f 6/23/5 2/24/5 1/25/5 3/26/5
f 8/27/5 6/23/5 3/26/5 5/28/5 7/13/5 4/29/5
f 14/30/6 11/31/6 9/32/6 10/33/6
f 16/34/6 12/35/6 15/36/6 13/37/6 11/31/6 14/30/6
f 15/38/7 12/39/7 4/40/7 7/41/7
f 17/42/8 18/43/8 20/44/8 19/45/8
f 19/42/6 20/43/6 22/44/6 21/46/6
f 21/42/9 22/43/9 24/44/9 23/46/9
f 23/42/10 24/43/10 26/44/10 25/45/10
f 20/47/7 18/48/7 28/49/7 26/50/7 24/51/7 22/52/7
f 25/42/5 26/43/5 28/44/5 27/46/5
f 27/42/11 28/43/11 18/44/11 17/46/11
f 17/53/1 19/54/1 21/55/1 23/56/1 25/57/1 27/58/1
f 29/42/8 30/43/8 32/44/8 31/46/8
f 31/42/6 32/43/6 34/44/6 33/45/6
f 33/42/9 34/43/9 36/44/9 35/46/9
f 35/42/10 36/43/10 38/44/10 37/45/10
f 32/59/7 30/60/7 40/61/7 38/62/7 36/63/7 34/64/7
f 37/42/5 38/43/5 40/44/5 39/46/5
f 39/42/11 40/43/11 30/44/11 29/45/11
f 29/65/1 31/66/1 33/67/1 35/68/1 37/69/1 39/70/1
o stock
v -0.464300 1.285221 1.361483
v -0.464277 1.205291 1.364833
v -0.465640 1.327221 1.169560
v -0.465602 1.197335 1.175004
v -0.249074 1.285221 1.359980
v -0.249050 1.205291 1.363330
v -0.250414 1.327221 1.168058
v -0.291687 1.279226 1.360529
v -0.288893 1.235945 1.760683
v -0.262238 1.262241 1.361035
v -0.259444 1.218960 1.761189
v -0.262228 1.228271 1.362459
v -0.259434 1.184990 1.762613
v -0.291667 1.211286 1.363376
v -0.288873 1.168005 1.763530
v -0.321116 1.228271 1.362870
v -0.318322 1.184990 1.763024
v -0.321126 1.262241 1.361446
v -0.318332 1.218960 1.761600
v -0.287948 1.303721 1.896105
v -0.258424 1.291167 1.907363
v -0.258264 1.266060 1.930289
v -0.287628 1.253506 1.941957
v -0.317152 1.266060 1.930700
v -0.317312 1.291167 1.907774
v -0.287785 1.424663 1.919432
v -0.258223 1.422414 1.936077
v -0.257988 1.417917 1.969777
v -0.287314 1.415669 1.986833
v -0.316876 1.417917 1.970188
v -0.317111 1.422414 1.936488
v -0.287761 1.615793 1.922907
v -0.258198 1.615022 1.939684
v -0.257961 1.613479 1.973648
v -0.287286 1.612708 1.990836
v -0.316849 1.613479 1.974059
v -0.317086 1.615022 1.940095
v -0.287560 2.182455 1.951654
v -0.257998 2.180207 1.968299
v -0.257763 2.175710 2.001999
v -0.287089 2.173461 2.019055
v -0.316651 2.175710 2.002411
v -0.316887 2.180207 1.968710
v -0.431683 1.279226 1.361506
v -0.428890 1.235945 1.761660
v -0.402234 1.262241 1.362013
v -0.399441 1.218960 1.762166
v -0.402224 1.228271 1.363436
v -0.399431 1.184990 1.763590
v -0.431664 1.211286 1.364354
v -0.428870 1.168005 1.764508
v -0.461113 1.228271 1.363847
v -0.458319 1.184990 1.764001
v -0.461123 1.262241 1.362424
v -0.458329 1.218960 1.762578
v -0.427944 1.303721 1.897083
v -0.398420 1.291167 1.908340
v -0.398260 1.266060 1.931266
v -0.427624 1.253506 1.942934
v -0.457148 1.266060 1.931677
v -0.457308 1.291167 1.908751
v -0.427782 1.424663 1.920410
v -0.398220 1.422414 1.937054
v -0.397984 1.417917 1.970755
v -0.427311 1.415669 1.987810
v -0.456873 1.417917 1.971166
v -0.457108 1.422414 1.937465
v -0.427757 1.615793 1.923885
v -0.398195 1.615022 1.940661
v -0.397957 1.613479 1.974625
v -0.427283 1.612708 1.991813
v -0.456846 1.613479 1.975037
v -0.457083 1.615022 1.941072
v -0.427557 2.182455 1.952631
v -0.397995 2.180207 1.969276
v -0.397760 2.175710 2.002977
v -0.427086 2.173461 2.020032
v -0.456648 2.175710 2.003388
v -0.456883 2.180207 1.969687
v -0.406250 2.241651 1.960406
v -0.380076 2.227110 1.976516
v -0.381093 2.222890 2.010238
v -0.408283 2.233212 2.027850
v -0.434457 2.247753 2.011740
v -0.433440 2.251972 1.978018
v -0.308756 2.241651 1.959725
v -0.281323 2.251972 1.976956
v -0.279836 2.247753 2.010660
v -0.305781 2.233212 2.027134
v -0.333214 2.222890 2.009904
v -0.334702 2.227110 1.976199
v -0.330378 2.265812 1.963591
v -0.310192 2.286625 1.981348
v -0.307686 2.283186 2.015081
v -0.325367 2.258933 2.031056
v -0.345553 2.238120 2.013299
v -0.348059 2.241559 1.979566
v -0.387793 2.264824 1.963074
v -0.369891 2.240571 1.978801
v -0.371925 2.237132 2.012565
v -0.391861 2.257945 2.030603
v -0.409763 2.282197 2.014876
v -0.407729 2.285637 1.981112
v -0.352460 2.273274 1.964084
v -0.353833 2.243091 1.979676
v -0.356560 2.241555 2.013532
v -0.357914 2.270201 2.031795
v -0.356541 2.300384 2.016203
v -0.353814 2.301920 1.982347
v -0.250376 1.197335 1.173501
v -0.398148 1.932723 1.947322
v -0.397911 1.931180 1.981287
v -0.456799 1.931180 1.981698
v -0.457036 1.932723 1.947733
v -0.427237 1.930409 1.998474
v -0.427711 1.933494 1.930546
v -0.258151 1.932723 1.946345
v -0.257914 1.931180 1.980309
v -0.316803 1.931180 1.980720
v -0.317040 1.932723 1.946756
v -0.287240 1.930409 1.997497
v -0.287714 1.933494 1.929568
vn 0.0070 0.0419 0.9991
vn -1.0000 -0.0000 0.0070
vn 1.0000 -0.0000 -0.0070
vn 0.0003 -0.9991 0.0419
vn 0.4964 0.8634 0.0899
vn 0.4951 -0.8634 -0.0968
vn -0.4964 -0.8634 -0.0899
vn 0.4789 -0.7923 0.3780
vn -0.4951 0.8634 0.0968
vn -0.0070 -0.0419 -0.9991
vn -0.4620 -0.2293 0.8567
vn -0.4787 0.7875 -0.3881
vn -0.4736 -0.7923 0.3846
vn 0.4732 0.7875 -0.3948
vn 0.5048 -0.0174 0.8631
vn 0.4739 -0.2293 0.8502
vn 0.4564 0.1792 -0.8715
vn -0.4686 0.1792 -0.8651
vn 0.4926 0.0160 -0.8701
vn -0.5047 0.0160 -0.8631
vn -0.4927 -0.0174 0.8700
vn -0.5045 -0.0592 -0.8614
vn 0.5057 -0.0765 0.8593
vn 0.4936 0.0765 -0.8663
vn -0.5057 0.0765 -0.8593
vn -0.4936 -0.0765 0.8663
vn -0.9537 0.2994 0.0277
vn -0.8048 0.5927 0.0309
vn 0.4738 -0.2751 0.8365
vn 0.4925 -0.0592 -0.8683
vn -0.4762 0.2658 -0.8382
vn -0.4954 0.0477 0.8674
vn 0.9397 -0.3403 -0.0331
vn -0.4377 -0.2339 -0.8681
vn -0.4621 -0.2751 0.8431
vn 0.9540 0.2994 0.0143
vn -0.9401 -0.3403 -0.0200
vn 0.5074 0.0477 0.8604
vn 0.4644 0.2658 -0.8448
vn -0.2844 -0.9560 -0.0713
vn -0.3440 -0.4184 0.8406
vn 0.7786 0.6270 0.0251
vn -0.7590 -0.6505 -0.0289
vn 0.4439 0.2261 0.8671
vn 0.3464 0.4154 -0.8411
vn -0.1314 0.5492 -0.8253
vn 0.3938 -0.3683 0.8422
vn 0.4349 -0.2220 -0.8727
vn -0.3830 0.3829 -0.8407
vn -0.4383 0.2177 0.8721
vn 0.8216 -0.5694 -0.0275
vn -0.1636 -0.5393 0.8261
vn -0.1819 0.4483 0.8752
vn 0.2186 -0.9742 -0.0563
vn -0.3070 0.9505 0.0483
vn 0.1475 -0.5432 0.8266
vn 0.1312 -0.4642 -0.8760
vn 0.1763 0.4469 0.8770
vn 0.3321 0.9406 0.0703
vn -0.1646 -0.4511 -0.8772
vn 0.1675 0.5379 -0.8262
vn 0.0015 0.9769 0.2138
vn -0.4938 -0.0182 0.8694
vn -0.5059 0.0182 -0.8624
vn 0.4938 0.0182 -0.8694
vn 0.5059 -0.0182 0.8624
vt 0.091170 0.696906
vt 0.046875 0.696906
vt 0.046875 0.680442
vt 0.091170 0.680442
vt 0.046875 0.644124
vt 0.007773 0.654414
vt 0.007773 0.627660
vt 0.046875 0.627660
vt 0.007773 0.681168
vt 0.046875 0.664704
vt 0.046875 0.681168
vt 0.091170 0.641339
vt 0.091170 0.680442
vt 0.046875 0.641339
vt 0.359375 0.968750
vt 0.000000 0.968750
vt 0.000000 1.000000
vt 0.359375 1.000000
vt 0.343750 0.968750
vt 0.343750 1.000000
vt 0.156250 0.968750
vt 0.156250 1.000000
vt 0.562290 0.113902
vt 0.588492 0.098774
vt 0.588492 0.068519
vt 0.562290 0.053391
vt 0.536088 0.068519
vt 0.536088 0.098774
vt 0.125000 0.968750
vt 0.125000 1.000000
vt 0.140625 0.968750
vt 0.140625 1.000000
vt 0.171875 0.968750
vt 0.171875 1.000000
vt 0.109375 1.000000
vt 0.109375 0.968750
vt 0.218750 0.968750
vt 0.218750 1.000000
vt 0.062500 1.000000
vt 0.046875 0.968750
vt 0.437710 0.113902
vt 0.463912 0.098774
vt 0.463912 0.068519
vt 0.437710 0.053391
vt 0.411508 0.068519
vt 0.411508 0.098774
vt 0.062500 0.968750
vt 0.031250 1.000000
vt 0.031250 0.968750
vt 0.046875 1.000000
vt 0.078125 1.000000
vt 0.078125 0.968750
vt 0.015625 0.968750
vt 0.015625 1.000000
vt 0.473029 0.967745
vt 0.455176 0.985583
vt 0.503144 1.000000
vt 0.504462 0.975212
vt 0.541967 0.986427
vt 0.524115 0.968590
vt 0.046875 0.600906
vt 0.091170 0.600906
vt 0.002580 0.627660
vt 0.002580 0.600906
vt 0.281250 0.968750
vt 0.281250 1.000000
s 0
usemtl mac10
f 45/71/12 41/72/12 42/73/12 46/74/12
f 41/75/13 43/76/13 44/77/13 42/78/13
f 150/79/14 47/76/14 45/80/14 46/81/14
f 42/82/15 44/83/15 150/73/15 46/84/15
f 48/85/16 49/86/16 51/87/16 50/88/16
f 50/88/14 51/87/14 53/86/14 52/85/14
f 52/88/17 53/87/17 55/86/17 54/85/17
f 54/86/18 55/89/18 57/90/18 56/87/18
f 55/87/19 53/86/19 62/91/19 63/92/19
f 56/85/13 57/86/13 59/87/13 58/88/13
f 58/89/20 59/86/20 49/87/20 48/90/20
f 48/93/21 50/94/21 52/95/21 54/96/21 56/97/21 58/98/21
f 64/99/22 63/100/22 69/87/22 70/86/22
f 49/100/23 59/99/23 65/86/23 60/87/23
f 57/101/24 55/102/24 63/87/24 64/86/24
f 53/87/14 51/86/14 61/101/14 62/102/14
f 59/86/13 57/87/13 64/102/13 65/101/13
f 51/102/25 49/101/25 60/86/25 61/87/25
f 69/87/26 68/86/26 74/103/26 75/104/26
f 62/87/14 61/86/14 67/99/14 68/100/14
f 65/86/13 64/87/13 70/100/13 71/99/13
f 63/101/27 62/102/27 68/87/27 69/86/27
f 61/105/28 60/106/28 66/86/28 67/87/28
f 60/86/29 65/87/29 71/105/29 66/106/29
f 158/87/14 157/86/14 79/107/14 80/108/14
f 67/86/30 66/87/30 72/104/30 73/103/30
f 66/104/31 71/103/31 77/86/31 72/87/31
f 70/103/32 69/104/32 75/87/32 76/86/32
f 68/87/14 67/86/14 73/103/14 74/104/14
f 71/86/13 70/87/13 76/104/13 77/103/13
f 78/109/33 83/110/33 131/86/33 126/87/33
f 160/86/13 159/87/13 82/108/13 83/107/13
f 161/107/34 158/108/34 80/87/34 81/86/34
f 157/108/35 162/107/35 78/86/35 79/87/35
f 162/108/36 160/107/36 83/86/36 78/87/36
f 159/87/37 161/86/37 81/107/37 82/108/37
f 84/87/16 85/90/16 87/89/16 86/86/16
f 86/86/14 87/89/14 89/90/14 88/87/14
f 88/86/17 89/89/17 91/90/17 90/87/17
f 90/86/18 91/85/18 93/88/18 92/87/18
f 91/87/19 89/86/19 98/101/19 99/102/19
f 92/87/13 93/88/13 95/85/13 94/86/13
f 94/87/20 95/88/20 85/85/20 84/86/20
f 84/111/21 86/112/21 88/113/21 90/114/21 92/115/21 94/116/21
f 100/87/22 99/86/22 105/101/22 106/102/22
f 85/86/23 95/87/23 101/100/23 96/99/23
f 93/87/24 91/86/24 99/91/24 100/92/24
f 89/87/14 87/86/14 97/101/14 98/102/14
f 95/86/13 93/87/13 100/102/13 101/101/13
f 87/86/25 85/87/25 96/100/25 97/99/25
f 105/87/26 104/86/26 110/103/26 111/104/26
f 98/87/14 97/86/14 103/99/14 104/100/14
f 101/86/13 100/87/13 106/102/13 107/101/13
f 99/87/27 98/86/27 104/99/27 105/100/27
f 97/86/28 96/87/28 102/105/28 103/106/28
f 96/86/29 101/87/29 107/102/29 102/101/29
f 152/87/14 151/86/14 115/107/14 116/108/14
f 103/86/30 102/87/30 108/104/30 109/103/30
f 102/86/31 107/87/31 113/104/31 108/103/31
f 106/87/32 105/86/32 111/103/32 112/104/32
f 104/87/14 103/86/14 109/103/14 110/104/14
f 107/86/13 106/87/13 112/104/13 113/103/13
f 119/86/38 118/87/38 124/109/38 125/117/38
f 154/86/13 153/87/13 118/108/13 119/107/13
f 155/107/34 152/108/34 116/87/34 117/86/34
f 151/86/35 156/87/35 114/108/35 115/107/35
f 156/108/36 154/107/36 119/86/36 114/87/36
f 153/87/37 155/86/37 117/107/37 118/108/37
f 125/86/39 124/87/39 142/118/39 143/119/39
f 117/110/40 116/120/40 122/87/40 123/86/40
f 115/86/41 114/87/41 120/109/41 121/117/41
f 114/86/42 119/87/42 125/121/42 120/122/42
f 118/87/43 117/86/43 123/117/43 124/109/43
f 116/87/44 115/86/44 121/110/44 122/120/44
f 126/118/45 131/119/45 137/86/45 132/87/45
f 82/110/46 81/109/46 129/87/46 130/86/46
f 80/87/47 79/86/47 127/117/47 128/109/47
f 83/86/48 82/87/48 130/120/48 131/110/48
f 81/117/49 80/121/49 128/87/49 129/86/49
f 79/121/50 78/117/50 126/86/50 127/87/50
f 137/123/51 136/124/51 146/87/51 145/86/51
f 130/123/52 129/118/52 135/87/52 136/86/52
f 128/87/53 127/86/53 133/119/53 134/118/53
f 131/87/54 130/118/54 136/119/54 137/86/54
f 129/119/55 128/118/55 134/87/55 135/86/55
f 127/118/56 126/119/56 132/86/56 133/87/56
f 138/125/57 143/126/57 149/127/57 144/128/57
f 123/86/58 122/119/58 140/118/58 141/87/58
f 121/119/59 120/86/59 138/87/59 139/118/59
f 120/86/60 125/87/60 143/118/60 138/119/60
f 124/87/61 123/86/61 141/119/61 142/118/61
f 122/86/62 121/119/62 139/118/62 140/87/62
f 136/119/63 135/118/63 147/87/63 146/86/63
f 142/87/64 141/86/64 147/110/64 148/120/64
f 140/87/65 139/86/65 145/123/65 146/124/65
f 143/86/66 142/87/66 148/120/66 149/110/66
f 141/87/67 140/86/67 146/119/67 147/118/67
f 139/86/68 138/87/68 144/118/68 145/119/68
f 135/119/69 134/120/69 148/87/69 147/86/69
f 134/120/70 133/110/70 149/86/70 148/87/70
f 132/118/71 137/119/71 145/86/71 144/87/71
f 133/129/72 132/130/72 144/128/72 149/127/72
f 43/84/73 41/131/73 45/132/73 47/82/73
f 44/131/21 43/78/21 47/133/21 150/134/21
f 112/87/74 111/86/74 155/135/74 153/136/74
f 108/136/75 113/135/75 154/86/75 156/87/75
f 109/86/76 108/87/76 156/136/76 151/135/76
f 111/87/77 110/86/77 152/135/77 155/136/77
f 113/86/13 112/87/13 153/136/13 154/135/13
f 110/87/14 109/86/14 151/135/14 152/136/14
f 76/135/74 75/136/74 161/87/74 159/86/74
f 72/136/75 77/135/75 160/86/75 162/87/75
f 73/136/76 72/135/76 162/86/76 157/87/76
f 75/87/77 74/86/77 158/135/77 161/136/77
f 77/86/13 76/87/13 159/136/13 160/135/13
f 74/87/14 73/86/14 157/135/14 158/136/14
o Cylinder
v -0.370000 1.280000 -1.700001
v -0.370000 1.280000 -2.900001
v -0.220000 1.320192 -1.700001
v -0.220000 1.320192 -2.900001
v -0.110192 1.430000 -1.700001
v -0.110192 1.430000 -2.900001
v -0.070000 1.580000 -1.700001
v -0.070000 1.580000 -2.900001
v -0.110192 1.730000 -1.700001
v -0.110192 1.730000 -2.900001
v -0.220000 1.839808 -1.700000
v -0.220000 1.839808 -2.900001
v -0.370000 1.880000 -1.700000
v -0.370000 1.880000 -2.900001
v -0.520000 1.839808 -1.700000
v -0.520000 1.839808 -2.900001
v -0.629808 1.730000 -1.700001
v -0.629808 1.730000 -2.900001
v -0.670000 1.580000 -1.700001
v -0.670000 1.580000 -2.900001
v -0.629808 1.430000 -1.700001
v -0.629808 1.430000 -2.900001
v -0.520000 1.320192 -1.700001
v -0.520000 1.320192 -2.900001
v -0.370000 1.400000 -1.700001
v -0.280000 1.424116 -1.700001
v -0.214115 1.490000 -1.700001
v -0.190000 1.580000 -1.700001
v -0.214115 1.670000 -1.700001
v -0.280000 1.735885 -1.700001
v -0.370000 1.760000 -1.700001
v -0.460000 1.735885 -1.700001
v -0.525885 1.670000 -1.700001
v -0.550000 1.580000 -1.700001
v -0.525885 1.490000 -1.700001
v -0.460000 1.424116 -1.700001
v -0.370000 1.400000 -1.600001
v -0.280000 1.424116 -1.600001
v -0.214115 1.490000 -1.600001
v -0.190000 1.580000 -1.600001
v -0.214115 1.670000 -1.600001
v -0.280000 1.735885 -1.600001
v -0.370000 1.760000 -1.600001
v -0.460000 1.735885 -1.600001
v -0.525885 1.670000 -1.600001
v -0.550000 1.580000 -1.600001
v -0.525885 1.490000 -1.600001
v -0.460000 1.424116 -1.600001
v -0.370000 1.370000 -2.900000
v -0.265000 1.398135 -2.900000
v -0.188135 1.475000 -2.900000
v -0.160000 1.580000 -2.900000
v -0.188135 1.685000 -2.900000
v -0.265000 1.761865 -2.900000
v -0.370000 1.790000 -2.900000
v -0.475000 1.761865 -2.900000
v -0.551865 1.685000 -2.900000
v -0.580000 1.580000 -2.900000
v -0.551865 1.475000 -2.900000
v -0.475000 1.398135 -2.900000
v -0.370000 1.370000 -4.700001
v -0.265000 1.398135 -4.700001
v -0.188134 1.475000 -4.700001
v -0.160000 1.580000 -4.700001
v -0.188134 1.685000 -4.700001
v -0.265000 1.761866 -4.700001
v -0.370000 1.790000 -4.700001
v -0.475000 1.761866 -4.700001
v -0.551865 1.685000 -4.700001
v -0.580000 1.580000 -4.700001
v -0.551865 1.475000 -4.700001
v -0.475000 1.398135 -4.700001
v -0.370000 1.496000 -4.700000
v -0.328000 1.507254 -4.700000
v -0.297254 1.538000 -4.700000
v -0.286000 1.580000 -4.700000
v -0.297254 1.622000 -4.700000
v -0.328000 1.652746 -4.700000
v -0.370000 1.664000 -4.700000
v -0.412000 1.652746 -4.700000
v -0.442746 1.622000 -4.700000
v -0.454000 1.580000 -4.700000
v -0.442746 1.538000 -4.700000
v -0.412000 1.507254 -4.700000
v -0.370000 1.481000 -1.600001
v -0.320500 1.494264 -1.600001
v -0.284263 1.530500 -1.600001
v -0.271000 1.580000 -1.600001
v -0.284263 1.629500 -1.600001
v -0.320500 1.665737 -1.600001
v -0.370000 1.679000 -1.600001
v -0.419500 1.665737 -1.600001
v -0.455736 1.629500 -1.600001
v -0.469000 1.580000 -1.600001
v -0.455736 1.530500 -1.600001
v -0.419500 1.494264 -1.600001
vn 0.2588 -0.9659 -0.0000
vn 0.7071 -0.7071 -0.0000
vn 0.9659 -0.2588 -0.0000
vn 0.9659 0.2588 -0.0000
vn 0.7071 0.7071 -0.0000
vn 0.2588 0.9659 -0.0000
vn -0.2588 0.9659 -0.0000
vn -0.7071 0.7071 -0.0000
vn -0.9659 0.2588 -0.0000
vn -0.9659 -0.2588 -0.0000
vn -0.0000 -0.0000 -1.0000
vn -0.7071 -0.7071 -0.0000
vn -0.2588 -0.9659 -0.0000
vn -0.0000 -0.0000 1.0000
vt 0.531250 0.968750
vt 0.531250 0.500000
vt 0.593750 0.500000
vt 0.593750 0.968750
vt 0.656250 0.500000
vt 0.656250 0.968750
vt 0.718750 0.500000
vt 0.718750 0.968750
vt 0.781250 0.500000
vt 0.781250 0.968750
vt 0.843750 0.500000
vt 0.843750 0.968750
vt 0.500000 0.500000
vt 0.500000 0.000000
vt 0.531250 0.000000
vt 0.593750 0.000000
vt 0.656250 0.000000
vt 0.718750 -0.000000
vt 0.781250 -0.000000
vt 0.156250 0.968750
vt 0.093750 0.968750
vt 0.093750 0.937500
vt 0.156250 0.937500
vt 0.843750 -0.000000
vt 0.500000 0.968750
vt 0.281250 0.937500
vt 0.250000 0.875000
vt 0.281250 0.875000
vt 0.312500 0.906250
vt 0.843750 0.406250
vt 0.843750 0.375000
vt 0.875000 0.375000
vt 0.875000 0.406250
vt 0.250000 0.812500
vt 0.281250 0.843750
vt 0.281250 0.781250
vt 0.312500 0.750000
vt 0.343750 0.781250
vt 0.312500 0.812500
vt 0.312500 0.968750
vt 0.343750 0.937500
vt 0.375000 0.968750
vt 0.375000 0.937500
vt 0.437500 0.937500
vt 0.406250 0.906250
vt 0.468750 0.875000
vt 0.437500 0.875000
vt 0.468750 0.812500
vt 0.437500 0.843750
vt 0.437500 0.781250
vt 0.406250 0.812500
vt 0.375000 0.750000
vt 0.375000 0.781250
vt 0.875000 0.593750
vt 0.875000 0.562500
vt 0.843750 0.625000
vt 0.843750 0.593750
vt 0.875000 0.625000
vt 0.843750 0.687500
vt 0.843750 0.656250
vt 0.875000 0.656250
vt 0.875000 0.687500
vt 0.843750 0.343750
vt 0.875000 0.343750
vt 0.843750 0.562500
vt 0.843750 0.468750
vt 0.843750 0.437500
vt 0.875000 0.437500
vt 0.875000 0.468750
vt 0.843750 0.312500
vt 0.875000 0.312500
vt 0.843750 0.531250
vt 0.875000 0.531250
vt 0.843750 0.718750
vt 0.875000 0.718750
vt 0.218750 0.750000
vt 0.156250 0.750000
vt 0.156250 0.000000
vt 0.218750 0.000000
vt 0.187500 0.875000
vt 0.187500 0.843750
vt 0.031250 0.937500
vt 0.062500 0.906250
vt 0.000000 0.875000
vt 0.031250 0.875000
vt 0.000000 0.812500
vt 0.031250 0.843750
vt 0.031250 0.781250
vt 0.062500 0.781250
vt 0.093750 0.750000
vt 0.093750 0.781250
vt 0.156250 0.781250
vt 0.218750 0.781250
vt 0.187500 0.781250
vt 0.218750 0.937500
vt 0.187500 0.906250
vt 0.281250 0.750000
vt 0.281250 0.000000
vt 0.312500 0.000000
vt 0.125000 0.750000
vt 0.093750 0.000000
vt 0.125000 0.000000
vt 0.437500 0.750000
vt 0.406250 0.750000
vt 0.406250 -0.000000
vt 0.437500 -0.000000
vt 0.250000 0.750000
vt 0.250000 0.000000
vt 0.375000 0.000000
vt 0.375000 -0.000000
vt 0.500000 0.750000
vt 0.031250 0.750000
vt 0.000000 0.750000
vt 0.000000 0.000000
vt 0.031250 0.000000
s 0
usemtl suppressor
f 163/137/78 164/138/78 166/139/78 165/140/78
f 165/140/79 166/139/79 168/141/79 167/142/79
f 167/142/80 168/141/80 170/143/80 169/144/80
f 169/144/81 170/143/81 172/145/81 171/146/81
f 171/146/82 172/145/82 174/147/82 173/148/82
f 173/149/83 174/150/83 176/151/83 175/138/83
f 175/138/84 176/151/84 178/152/84 177/139/84
f 177/139/85 178/152/85 180/153/85 179/141/85
f 179/141/86 180/153/86 182/154/86 181/143/86
f 181/143/87 182/154/87 184/155/87 183/145/87
f 186/156/88 184/157/88 221/158/88 222/159/88
f 183/145/89 184/155/89 186/160/89 185/147/89
f 185/161/90 186/149/90 164/138/90 163/137/90
f 185/162/91 163/163/91 187/164/91 198/165/91
f 192/166/83 193/167/83 205/168/83 204/169/83
f 163/163/91 165/170/91 188/171/91 187/164/91
f 167/172/91 169/173/91 190/174/91 189/175/91
f 183/176/91 185/162/91 198/165/91 197/177/91
f 165/170/91 167/172/91 189/175/91 188/171/91
f 181/178/91 183/176/91 197/177/91 196/179/91
f 179/180/91 181/178/91 196/179/91 195/181/91
f 177/182/91 179/180/91 195/181/91 194/183/91
f 175/184/91 177/182/91 194/183/91 193/185/91
f 173/186/91 175/184/91 193/185/91 192/187/91
f 171/188/91 173/186/91 192/187/91 191/189/91
f 169/173/91 171/188/91 191/189/91 190/174/91
f 202/190/91 203/191/91 251/191/91 250/190/91
f 189/192/80 190/193/80 202/190/80 201/194/80
f 196/195/87 197/196/87 209/197/87 208/198/87
f 193/167/84 194/199/84 206/200/84 205/168/84
f 190/193/81 191/201/81 203/191/81 202/190/81
f 197/196/89 198/192/89 210/194/89 209/197/89
f 187/202/78 188/203/78 200/204/78 199/205/78
f 194/199/85 195/206/85 207/207/85 206/200/85
f 191/201/82 192/208/82 204/209/82 203/191/82
f 198/208/90 187/202/90 199/205/90 210/209/90
f 188/203/79 189/166/79 201/169/79 200/204/79
f 195/210/86 196/195/86 208/198/86 207/211/86
f 218/212/84 217/213/84 229/214/84 230/215/84
f 168/170/88 166/163/88 212/216/88 213/217/88
f 184/157/88 182/218/88 220/219/88 221/158/88
f 182/218/88 180/220/88 219/221/88 220/219/88
f 180/220/88 178/222/88 218/223/88 219/221/88
f 178/222/88 176/224/88 217/225/88 218/223/88
f 176/224/88 174/226/88 216/227/88 217/225/88
f 174/226/88 172/213/88 215/228/88 216/227/88
f 172/213/88 170/229/88 214/230/88 215/228/88
f 164/231/88 186/156/88 222/159/88 211/232/88
f 166/163/88 164/231/88 211/232/88 212/216/88
f 170/229/88 168/170/88 213/217/88 214/230/88
f 230/215/88 229/214/88 241/214/88 242/215/88
f 215/173/81 214/233/81 226/234/81 227/235/81
f 222/236/89 221/226/89 233/237/89 234/238/89
f 212/239/78 211/240/78 223/241/78 224/242/78
f 219/243/85 218/212/85 230/215/85 231/244/85
f 216/188/82 215/173/82 227/235/82 228/245/82
f 211/240/90 222/188/90 234/246/90 223/241/90
f 213/247/79 212/239/79 224/242/79 225/150/79
f 220/248/86 219/249/86 231/250/86 232/251/86
f 217/213/83 216/236/83 228/238/83 229/214/83
f 214/233/80 213/243/80 225/244/80 226/234/80
f 221/226/87 220/248/87 232/251/87 233/237/87
f 227/235/88 226/234/88 238/234/88 239/235/88
f 234/238/88 233/237/88 245/237/88 246/238/88
f 224/242/88 223/241/88 235/241/88 236/242/88
f 231/244/88 230/215/88 242/215/88 243/244/88
f 228/245/88 227/235/88 239/235/88 240/245/88
f 223/241/88 234/246/88 246/246/88 235/241/88
f 225/150/88 224/242/88 236/242/88 237/150/88
f 232/251/88 231/250/88 243/250/88 244/251/88
f 229/214/88 228/238/88 240/238/88 241/214/88
f 226/234/88 225/244/88 237/244/88 238/234/88
f 233/237/88 232/251/88 244/251/88 245/237/88
f 209/197/91 210/194/91 258/194/91 257/197/91
f 199/205/91 200/204/91 248/204/91 247/205/91
f 206/200/91 207/207/91 255/207/91 254/200/91
f 203/191/91 204/209/91 252/209/91 251/191/91
f 210/209/91 199/205/91 247/205/91 258/209/91
f 200/204/91 201/169/91 249/169/91 248/204/91
f 207/211/91 208/198/91 256/198/91 255/211/91
f 204/169/91 205/168/91 253/168/91 252/169/91
f 201/194/91 202/190/91 250/190/91 249/194/91
f 208/198/91 209/197/91 257/197/91 256/198/91
f 205/168/91 206/200/91 254/200/91 253/168/91
o mac10
v -0.370000 2.000000 1.000000
v -0.404641 1.980000 1.000000
v -0.404641 1.940000 1.000000
v -0.370000 1.920000 1.000000
v -0.335359 1.940000 1.000000
v -0.335359 1.980000 1.000000
v -0.148500 1.170000 1.000000
v -0.148500 1.830000 1.000000
v -0.148500 1.170000 -1.600000
v -0.148500 1.830000 -1.600000
v -0.596500 1.170000 1.000000
v -0.596500 1.830000 1.000000
v -0.596500 1.170000 -1.600000
v -0.596500 1.830000 -1.600000
v -0.490000 1.830000 -1.600000
v -0.490000 1.830000 1.000000
v -0.245000 1.830000 1.000000
v -0.245000 1.830000 -1.600000
v -0.428750 2.030000 1.000000
v -0.306250 2.030000 1.000000
v -0.490000 1.170000 -0.240000
v -0.245000 1.170000 -0.240000
v -0.490000 1.170000 0.180000
v -0.245000 1.170000 0.180000
v -0.275000 0.070000 0.180000
v -0.490000 0.020000 -0.240000
v -0.245000 0.020000 -0.240000
v -0.490000 0.020000 0.180000
v -0.245000 0.020000 0.180000
v -0.465000 0.070000 0.180000
v -0.275000 1.170000 0.180000
v -0.465000 1.170000 0.180000
v -0.490000 2.030000 -1.600000
v -0.245000 2.030000 -1.600000
v -0.490000 1.890000 -1.400000
v -0.245000 1.890000 -1.400000
v -0.490000 1.830000 -1.400000
v -0.245000 1.830000 -1.400000
v -0.465500 2.030000 -1.600000
v -0.269500 2.030000 -1.600000
v -0.465500 1.890000 -1.400000
v -0.269500 1.890000 -1.400000
v -0.465500 1.890000 -1.600000
v -0.269500 1.890000 -1.600000
v -0.299466 1.677082 -1.684000
v -0.370000 1.700000 -1.684000
v -0.370000 1.680000 -2.160000
v -0.370000 1.700000 -1.600000
v -0.311221 1.660902 -2.160000
v -0.299466 1.677082 -1.600000
v -0.274894 1.610901 -2.160000
v -0.255873 1.617082 -1.600000
v -0.274894 1.549098 -2.160000
v -0.255873 1.542918 -1.600000
v -0.311221 1.499098 -2.160000
v -0.299466 1.482918 -1.600000
v -0.370000 1.480000 -2.160000
v -0.370000 1.460000 -1.600000
v -0.428779 1.499098 -2.160000
v -0.440534 1.482918 -1.600000
v -0.465106 1.549098 -2.160000
v -0.484127 1.542918 -1.600000
v -0.465106 1.610901 -2.160000
v -0.484127 1.617082 -1.600000
v -0.428779 1.660902 -2.160000
v -0.440534 1.677082 -1.600000
v -0.255873 1.617082 -1.684000
v -0.255873 1.542918 -1.684000
v -0.299466 1.482918 -1.684000
v -0.370000 1.460000 -1.684000
v -0.440534 1.482918 -1.684000
v -0.484127 1.542918 -1.684000
v -0.484127 1.617082 -1.684000
v -0.440534 1.677082 -1.684000
v -0.311221 1.660902 -1.683999
v -0.274894 1.610901 -1.683999
v -0.274894 1.549098 -1.683999
v -0.311221 1.499098 -1.683999
v -0.370000 1.480000 -1.683999
v -0.428779 1.499098 -1.683999
v -0.465106 1.549098 -1.683999
v -0.465106 1.610902 -1.683999
v -0.370000 1.680000 -1.683999
v -0.428779 1.660902 -1.683999
v -0.370000 1.661000 -2.160000
v -0.322389 1.645530 -2.160000
v -0.292964 1.605030 -2.160000
v -0.292964 1.554969 -2.160000
v -0.322389 1.514469 -2.160000
v -0.370000 1.499000 -2.160000
v -0.417611 1.514469 -2.160000
v -0.447036 1.554969 -2.160000
v -0.447036 1.605030 -2.160000
v -0.417611 1.645530 -2.160000
v -0.391387 1.014600 -0.660000
v -0.391387 1.170600 -0.666500
v -0.343612 1.170600 -0.666500
v -0.343612 1.014600 -0.660000
v -0.391387 0.923600 -0.601500
v -0.343612 0.923600 -0.601500
v -0.391387 0.897600 -0.510500
v -0.343612 0.897600 -0.510500
v -0.391387 0.923600 -0.211500
v -0.343612 0.923600 -0.211500
v -0.388999 1.011740 -0.647000
v -0.388999 1.172140 -0.652850
v -0.346001 1.172140 -0.652850
v -0.346001 1.011740 -0.647000
v -0.388999 0.929840 -0.594350
v -0.346001 0.929840 -0.594350
v -0.388999 0.906440 -0.512450
v -0.346001 0.906440 -0.512450
v -0.388999 0.929840 -0.213350
v -0.346001 0.929840 -0.213350
v -0.370000 2.000000 0.980000
v -0.404641 1.980000 0.980000
v -0.404641 1.940000 0.980000
v -0.370000 1.920000 0.980000
v -0.335359 1.940000 0.980000
v -0.335359 1.980000 0.980000
v -0.490000 1.830000 0.980000
v -0.245000 1.830000 0.980000
v -0.428750 2.030000 0.980000
v -0.306250 2.030000 0.980000
v -0.148500 1.700000 0.120000
v -0.148500 1.470000 0.120000
v -0.148500 1.700000 -0.360000
v -0.148500 1.470000 -0.360000
v -0.186500 1.700000 0.120000
v -0.186500 1.470000 0.120000
v -0.186500 1.700000 -0.360000
v -0.186500 1.470000 -0.360000
v -0.311221 1.660902 0.196001
v -0.274894 1.610901 0.196001
v -0.274894 1.549098 0.196001
v -0.311221 1.499098 0.196001
v -0.370000 1.480000 0.196001
v -0.428779 1.499098 0.196001
v -0.465106 1.549098 0.196001
v -0.465106 1.610902 0.196001
v -0.370000 1.680000 0.196001
v -0.428779 1.660902 0.196001
v -0.428779 1.660902 -0.367999
v -0.465106 1.610902 -0.367999
v -0.311221 1.660902 -0.367999
v -0.274894 1.610901 -0.367999
v -0.311221 1.499098 -0.367999
v -0.370000 1.480000 -0.367999
v -0.465106 1.549098 -0.367999
v -0.370000 1.680000 -0.367999
v -0.274894 1.549098 -0.367999
v -0.428779 1.499098 -0.367999
v -0.428779 1.660902 0.083201
v -0.311221 1.660902 0.083201
v -0.311221 1.499098 0.083201
v -0.465106 1.610902 0.083201
v -0.274894 1.610901 0.083201
v -0.370000 1.480000 0.083201
v -0.465106 1.549098 0.083201
v -0.370000 1.680000 0.083201
v -0.274894 1.549098 0.083201
v -0.428779 1.499098 0.083201
v -0.260500 1.170000 -1.600000
v -0.484500 1.170000 -1.600000
v -0.260500 1.140000 -1.640000
v -0.484500 1.140000 -1.640000
v -0.260500 1.140000 -1.560000
v -0.484500 1.140000 -1.560000
v -0.260500 1.170000 -1.560000
v -0.484500 1.170000 -1.560000
v -0.303627 0.098376 0.456217
v -0.275000 0.070000 0.431206
v -0.303627 0.491624 0.403784
v -0.275000 0.513829 0.372025
v -0.303627 0.548166 0.394879
v -0.303627 0.821834 0.345121
v -0.275000 0.852566 0.310437
v -0.303627 0.876863 0.349897
v -0.303627 1.013138 0.400104
v -0.275000 1.058093 0.386158
v -0.303627 1.056761 0.433208
v -0.303627 1.170000 0.590000
v -0.275000 1.170000 0.541105
v -0.436372 0.098376 0.456217
v -0.465000 0.070000 0.431206
v -0.436372 0.491624 0.403784
v -0.436372 0.548166 0.394879
v -0.465000 0.513829 0.372025
v -0.436372 0.821834 0.345121
v -0.436372 0.876863 0.349897
v -0.465000 0.852566 0.310437
v -0.436372 1.013138 0.400104
v -0.436372 1.056761 0.433208
v -0.465000 1.058093 0.386158
v -0.465000 1.170000 0.541105
v -0.436372 1.170000 0.590000
v -0.353000 1.170000 -0.310000
v -0.353000 1.080000 -0.320000
v -0.353000 1.170000 -0.400000
v -0.353000 1.090000 -0.380000
v -0.353000 1.020000 -0.362500
v -0.353000 1.020000 -0.407500
v -0.353000 0.960000 -0.465000
v -0.383000 1.170000 -0.310000
v -0.383000 1.080000 -0.320000
v -0.383000 1.170000 -0.400000
v -0.383000 1.090000 -0.380000
v -0.383000 1.020000 -0.362500
v -0.383000 1.020000 -0.407500
v -0.383000 0.960000 -0.465000
v -0.370000 1.661000 -1.600000
v -0.322389 1.645530 -1.600000
v -0.292964 1.605030 -1.600000
v -0.292964 1.554969 -1.600000
v -0.322389 1.514469 -1.600000
v -0.370000 1.499000 -1.600000
v -0.417611 1.514469 -1.600000
v -0.447036 1.554969 -1.600000
v -0.447036 1.605030 -1.600000
v -0.417611 1.645530 -1.600000
v -0.470000 0.020000 -0.200000
v -0.260000 0.020000 -0.200000
v -0.470000 0.020000 0.140000
v -0.260000 0.020000 0.140000
vn 1.0000 -0.0000 -0.0000
vn -1.0000 -0.0000 -0.0000
vn -0.0000 -0.0000 1.0000
vn -0.0000 -0.0000 -1.0000
vn -0.0000 -1.0000 -0.0000
vn -0.0000 -0.3457 0.9383
vn -0.0000 0.1789 0.9839
vn -0.0000 -0.8107 0.5855
vn -0.0000 0.1322 0.9912
vn -0.0000 0.8192 0.5735
vn -0.0000 1.0000 -0.0000
vn -0.0000 0.9258 0.3779
vn 0.8090 -0.5878 -0.0000
vn 0.3090 0.9511 -0.0000
vn 0.8090 0.5878 -0.0000
vn -0.3090 -0.9511 -0.0000
vn -0.8090 -0.5878 -0.0000
vn 0.3090 -0.9511 -0.0000
vn -0.8090 0.5878 -0.0000
vn -0.3090 0.9511 -0.0000
vn -0.0000 -0.0416 -0.9991
vn -0.0000 -0.5408 -0.8412
vn -0.0000 -0.9615 -0.2747
vn -0.0000 -0.9962 0.0866
vn -0.0000 0.0364 0.9993
vn -0.0000 0.5408 0.8412
vn -0.0000 0.9615 0.2747
vn -0.0000 0.9970 -0.0780
vn -0.0000 0.2842 0.9588
vn -0.0000 0.9937 -0.1121
vn -0.9548 0.2963 -0.0245
vn 0.9842 0.0069 0.1768
vn -0.9842 0.0069 0.1768
vn -0.9578 0.2762 0.0789
vn -0.9691 0.1333 0.2074
vn 0.9548 0.2963 -0.0245
vn 0.9578 0.2762 0.0789
vn 0.9691 0.1333 0.2074
vn 0.5000 -0.8660 -0.0000
vn -0.9562 0.2928 -0.0000
vn -0.5000 0.8660 -0.0000
vn 0.5000 0.8660 -0.0000
vn 0.9562 0.2928 -0.0000
vn -0.5000 -0.8660 -0.0000
vn -0.0000 0.8000 -0.6000
vn 0.6982 0.1114 0.7072
vn 0.7926 -0.0527 0.6075
vn 0.8009 -0.3620 0.4770
vn -0.6982 0.1114 0.7072
vn -0.7926 -0.0527 0.6075
vn -0.8009 -0.3620 0.4770
vn 0.7061 0.0936 0.7019
vn 0.7071 0.1265 0.6957
vn 0.7071 -0.2445 0.6635
vn 0.7071 -0.5732 0.4140
vn -0.7061 0.0936 0.7019
vn -0.7071 0.1265 0.6957
vn -0.7071 -0.2445 0.6635
vn -0.7071 -0.5732 0.4140
vn -0.0000 0.1556 0.9878
vn -0.0000 -0.6612 0.7502
vn -0.0000 -0.6045 0.7966
vn -0.0000 -0.0865 0.9963
vn -0.0000 -0.5780 0.8160
vn -0.0000 -0.2425 -0.9701
vn -0.0000 -0.1104 0.9939
vn -0.0000 0.6919 -0.7220
vn -0.0000 -0.8630 0.5052
vn -0.0000 0.3657 -0.9308
vt 0.703125 0.296875
vt 0.718750 0.296875
vt 0.718750 0.312500
vt 0.703125 0.312500
vt 0.171875 -0.000000
vt 0.359375 0.000000
vt 0.359375 0.703125
vt 0.171875 0.703125
vt 0.750000 0.609375
vt 0.750000 0.312500
vt 0.812500 0.312500
vt 0.812500 0.609375
vt 0.593750 0.921875
vt 0.593750 0.625000
vt 0.656250 0.625000
vt 0.656250 0.921875
vt 0.593750 0.000000
vt 0.703125 0.000000
vt 0.593750 0.312500
vt 0.703125 0.625000
vt 0.296875 0.828125
vt 0.296875 0.765625
vt 0.343750 0.765625
vt 0.343750 0.828125
vt 0.781250 -0.000000
vt 0.765625 0.125000
vt 0.750000 0.203125
vt 0.765625 0.265625
vt 0.812500 0.296875
vt 0.843750 0.578125
vt 0.843750 0.609375
vt 0.812500 0.578125
vt 0.843750 0.484375
vt 0.843750 0.562500
vt 0.812500 0.562500
vt 0.812500 0.484375
vt 0.812500 0.546875
vt 0.812500 0.515625
vt 0.859375 0.515625
vt 0.859375 0.546875
vt 0.843750 0.359375
vt 0.843750 0.468750
vt 0.812500 0.468750
vt 0.812500 0.359375
vt 0.593750 0.703125
vt 0.468750 0.703125
vt 0.468750 -0.000000
vt 0.765625 0.828125
vt 0.765625 0.906250
vt 0.750000 0.906250
vt 0.750000 0.828125
vt 0.359375 0.859375
vt 0.390625 0.812500
vt 0.406250 0.812500
vt 0.406250 0.859375
vt 0.828125 0.546875
vt 0.875000 0.609375
vt 0.234375 0.765625
vt 0.234375 0.812500
vt 0.875000 0.546875
vt 0.593750 0.609375
vt 0.171875 0.828125
vt 0.234375 0.828125
vt 0.234375 0.890625
vt 0.171875 0.890625
vt 0.687500 0.875000
vt 0.656250 0.859375
vt 0.687500 0.812500
vt 0.656250 0.750000
vt 0.687500 0.796875
vt 0.656250 0.812500
vt 0.296875 0.703125
vt 0.343750 0.703125
vt 0.312500 0.703125
vt 0.312500 0.765625
vt 0.703125 0.218750
vt 0.703125 0.234375
vt 0.890625 0.484375
vt 0.890625 0.359375
vt 0.906250 0.359375
vt 0.906250 0.484375
vt 0.218750 0.703125
vt 0.234375 0.703125
vt 0.234375 0.718750
vt 0.125000 0.859375
vt 0.140625 0.859375
vt 0.140625 0.875000
vt 0.125000 0.875000
vt 0.875000 0.484375
vt 0.875000 0.359375
vt 0.234375 0.734375
vt 0.750000 0.890625
vt 0.734375 0.890625
vt 0.734375 0.875000
vt 0.750000 0.875000
vt 0.562500 0.828125
vt 0.562500 0.703125
vt 0.578125 0.703125
vt 0.578125 0.828125
vt 0.234375 0.750000
vt 0.218750 0.750000
vt 0.734375 0.843750
vt 0.750000 0.843750
vt 0.671875 0.625000
vt 0.671875 0.750000
vt 0.203125 0.765625
vt 0.734375 0.828125
vt 0.687500 0.625000
vt 0.687500 0.750000
vt 0.187500 0.750000
vt 0.796875 0.828125
vt 0.828125 0.828125
vt 0.828125 0.859375
vt 0.796875 0.859375
vt 0.703125 0.750000
vt 0.171875 0.734375
vt 0.187500 0.734375
vt 0.828125 0.875000
vt 0.796875 0.875000
vt 0.906250 0.609375
vt 0.906250 0.468750
vt 0.921875 0.468750
vt 0.921875 0.609375
vt 0.171875 0.718750
vt 0.187500 0.718750
vt 0.703125 0.828125
vt 0.703125 0.843750
vt 0.937500 0.468750
vt 0.937500 0.609375
vt 0.187500 0.703125
vt 0.703125 0.875000
vt 0.203125 0.703125
vt 0.703125 0.890625
vt 0.546875 0.828125
vt 0.546875 0.703125
vt 0.125000 0.843750
vt 0.140625 0.843750
vt 0.328125 0.843750
vt 0.343750 0.843750
vt 0.343750 0.859375
vt 0.859375 0.484375
vt 0.859375 0.359375
vt 0.703125 0.609375
vt 0.828125 0.609375
vt 0.828125 0.781250
vt 0.796875 0.781250
vt 0.734375 0.781250
vt 0.703125 0.781250
vt 0.468750 0.000000
vt 0.317582 0.859375
vt 0.327280 0.859375
vt 0.317532 0.889375
vt 0.309687 0.883675
vt 0.328125 0.875000
vt 0.312500 0.890625
vt 0.312500 0.875000
vt 0.296875 0.843750
vt 0.312500 0.828125
vt 0.312500 0.843750
vt 0.343750 0.875000
vt 0.309687 0.835075
vt 0.317532 0.829375
vt 0.296875 0.875000
vt 0.359375 0.828125
vt 0.359375 0.875000
vt 0.359375 0.890625
vt 0.343750 0.890625
vt 0.578125 0.796875
vt 0.578125 0.781250
vt 0.593750 0.781250
vt 0.593750 0.796875
vt 0.406250 0.828125
vt 0.421875 0.828125
vt 0.421875 0.875000
vt 0.406250 0.875000
vt 0.421875 0.812500
vt 0.906250 0.578125
vt 0.890625 0.578125
vt 0.890625 0.562500
vt 0.906250 0.562500
vt 0.421875 0.765625
vt 0.156250 0.812500
vt 0.125000 0.828125
vt 0.468750 0.843750
vt 0.437500 0.812500
vt 0.468750 0.828125
vt 0.421875 0.796875
vt 0.125000 0.703125
vt 0.171875 0.765625
vt 0.171875 0.796875
vt 0.703125 0.812500
vt 0.828125 0.843750
vt 0.703125 0.859375
vt 0.281250 0.875000
vt 0.265625 0.875000
vt 0.265625 0.859375
vt 0.281250 0.859375
vt 0.265625 0.843750
vt 0.281250 0.843750
vt 0.187500 0.812500
vt 0.171875 0.812500
vt 0.187500 0.796875
vt 0.187500 0.781250
vt 0.171875 0.781250
vt 0.203125 0.781250
vt 0.203125 0.796875
vt 0.203125 0.812500
vt 0.890625 0.609375
vt 0.890625 0.546875
vt 0.765625 0.812500
vt 0.781250 0.812500
vt 0.781250 0.828125
vt -0.000000 0.703125
vt 0.031250 0.359375
vt 0.093750 0.359375
vt -0.000000 0.000000
vt 0.031250 0.234375
vt 0.093750 0.234375
vt 0.156250 0.843750
vt 0.156250 0.906250
vt 0.171875 0.843750
vt 0.171875 0.906250
vt 0.828125 0.031250
vt 0.812500 0.031250
vt 0.812500 0.000000
vt 0.828125 0.000000
vt 0.437500 0.875000
vt 0.421875 0.843750
vt 0.437500 0.843750
vt 0.843750 0.031250
vt 0.843750 -0.000000
vt 0.984375 0.031250
vt 0.968750 0.031250
vt 0.968750 -0.000000
vt 0.984375 0.000000
vt 0.859375 0.031250
vt 0.859375 0.000000
vt 1.000000 0.031250
vt 1.000000 0.000000
vt 0.953125 0.031250
vt 0.937500 0.031250
vt 0.937500 0.000000
vt 0.953125 -0.000000
vt 0.953125 0.500000
vt 0.937500 0.500000
vt 0.937500 0.156250
vt 0.953125 0.156250
vt 1.000000 0.500000
vt 0.984375 0.500000
vt 0.984375 0.156250
vt 1.000000 0.156250
vt 0.859375 0.500000
vt 0.843750 0.500000
vt 0.843750 0.156250
vt 0.859375 0.156250
vt 0.921875 0.125000
vt 0.937500 0.125000
vt 0.828125 0.500000
vt 0.828125 0.156250
vt 0.968750 0.156250
vt 0.968750 0.500000
vt 0.812500 0.500000
vt 0.812500 0.156250
vt 0.796875 0.843750
vt 0.781250 0.859375
vt 0.765625 0.859375
vt 0.453125 0.843750
vt 0.453125 0.875000
vt 0.921875 0.000000
vt 0.937500 -0.000000
vt 0.875000 0.000000
vt 0.890625 0.000000
vt 0.906250 0.000000
vt 0.578125 0.812500
vt 0.593750 0.812500
vt 0.593750 0.828125
vt 0.593750 0.890625
vt 0.578125 0.890625
vt 0.156250 0.890625
vt 0.140625 0.906250
vt 0.765625 0.421875
vt 0.765625 0.437500
vt 0.781250 0.515625
vt 0.765625 0.531250
vt 0.765625 0.562500
vt 0.765625 0.578125
vt 0.750000 0.578125
vt 0.765625 0.109375
vt 0.750000 0.218750
vt 0.765625 0.250000
vt 0.781250 0.265625
vt 0.718750 0.609375
vt 0.781250 0.015625
vt 0.953125 0.609375
vt 0.843750 0.625000
vt 0.812500 0.625000
vt 0.890625 0.500000
vt 0.875000 0.515625
vt 0.890625 0.531250
vt 0.875000 0.531250
vt 0.562500 0.859375
vt 0.546875 0.843750
vt 0.562500 0.875000
vt 0.546875 0.875000
vt 0.468750 0.859375
vt 0.453125 0.859375
vt 0.437500 0.859375
vt 0.468750 0.875000
vt 0.437500 0.890625
vt -0.000000 0.875000
vt 0.515625 0.843750
vt 0.500000 0.843750
vt 0.500000 0.703125
vt 0.515625 0.703125
vt 0.250000 0.843750
vt 0.234375 0.843750
vt 0.250000 0.703125
vt 0.484375 0.843750
vt 0.484375 0.703125
vt 0.281250 0.703125
vt 0.531250 0.843750
vt 0.531250 0.703125
vt 0.265625 0.703125
vt 0.359375 0.812500
vt 0.359375 0.796875
vt 0.421875 0.703125
s 0
usemtl mac10
f 261/252/92 375/253/92 374/254/92 260/255/92
f 269/256/93 270/257/93 272/258/93 271/259/93
f 281/260/94 286/261/94 287/262/94 282/263/94
f 284/264/95 279/265/95 280/266/95 285/267/95
f 287/268/92 285/269/92 280/255/92 282/270/92
f 279/265/93 284/270/93 286/255/93 281/271/93
f 283/272/96 430/273/96 443/274/96 288/275/96
f 288/269/93 443/276/93 446/277/93 449/278/93 452/279/93 453/280/93 290/252/93
f 436/281/97 437/282/97 450/263/97 448/283/97
f 433/284/98 434/285/98 447/286/98 445/287/98
f 439/288/99 440/289/99 454/290/99 451/291/99
f 429/292/100 431/293/100 444/294/100 442/295/100
f 269/268/96 271/296/96 267/297/96 265/298/96
f 294/299/94 293/300/94 295/301/94 296/302/94
f 292/303/92 294/304/92 296/305/92 276/306/92
f 273/263/93 295/288/93 293/307/93 291/308/93
f 294/309/101 292/310/101 298/310/101 300/309/101
f 291/308/101 293/311/101 299/311/101 297/308/101
f 293/265/94 294/312/94 300/312/94 299/265/94
f 299/313/102 300/314/102 302/315/102 301/316/102
f 298/317/93 302/318/93 300/319/93
f 299/320/92 301/321/92 297/322/92
f 273/323/95 291/324/95 297/324/95 301/325/95 302/326/95 298/274/95 292/274/95 276/273/95
f 275/255/103 270/327/103 274/328/103
f 311/329/104 335/330/104 336/331/104 313/332/104
f 333/333/95 303/334/95 325/335/95 334/335/95
f 304/336/105 306/337/105 308/338/105 303/339/105
f 309/340/92 334/341/92 335/330/92 311/329/92
f 334/335/95 325/335/95 326/342/95 335/342/95
f 303/343/106 308/344/106 310/345/106 325/346/106
f 315/347/107 337/348/107 338/349/107 317/350/107
f 335/342/95 326/342/95 327/351/95 336/352/95
f 325/346/92 310/345/92 312/353/92 326/354/92
f 317/320/108 338/266/108 339/355/108 319/356/108
f 336/352/95 327/351/95 328/357/95 337/357/95
f 326/354/104 312/353/104 314/358/104 327/302/104
f 319/356/93 339/355/93 340/359/93 321/360/93
f 337/357/95 328/357/95 329/361/95 338/361/95
f 327/362/109 314/363/109 316/364/109 328/365/109
f 321/360/110 340/359/110 342/271/110 323/366/110
f 338/361/95 329/361/95 330/367/95 339/368/95
f 328/365/107 316/364/107 318/369/107 329/370/107
f 323/371/111 342/372/111 341/373/111 305/374/111
f 339/368/95 330/367/95 331/375/95 340/376/95
f 329/377/108 318/358/108 320/353/108 330/378/108
f 305/374/105 341/373/105 333/379/105 307/380/105
f 340/376/95 331/375/95 332/381/95 342/381/95
f 330/378/93 320/353/93 322/345/93 331/382/93
f 342/381/95 332/381/95 304/383/95 341/383/95
f 331/382/110 322/345/110 324/344/110 332/384/110
f 313/385/109 336/386/109 337/348/109 315/347/109
f 341/383/95 304/383/95 303/334/95 333/333/95
f 332/387/111 324/388/111 306/337/111 304/336/111
f 307/389/95 309/390/95 345/391/95 344/389/95
f 307/392/106 333/393/106 334/341/106 309/340/106
f 269/394/94 265/395/94 266/396/94 275/397/94 274/398/94 270/399/94
f 270/257/102 266/400/102 268/297/102 272/258/102
f 351/401/95 321/402/95 323/403/95 352/404/95
f 313/405/95 315/406/95 348/407/95 347/405/95
f 323/408/95 305/409/95 343/410/95 352/408/95
f 309/390/95 311/411/95 346/391/95 345/391/95
f 321/402/95 351/401/95 350/412/95 319/413/95
f 315/406/95 317/414/95 349/414/95 348/407/95
f 305/409/95 307/389/95 344/389/95 343/410/95
f 353/411/112 354/275/112 355/415/112 356/416/112
f 356/416/113 358/417/113 357/418/113 353/411/113
f 358/419/114 360/420/114 359/421/114 357/422/114
f 360/420/115 362/349/115 361/296/115 359/421/115
f 363/423/116 366/424/116 365/425/116 364/426/116
f 366/424/117 363/423/117 367/305/117 368/427/117
f 368/428/118 367/429/118 369/430/118 370/431/118
f 370/431/119 369/430/119 371/329/119 372/332/119
f 361/271/120 362/271/120 372/271/120 371/271/120
f 355/375/121 354/259/121 364/259/121 365/375/121
f 359/432/122 361/297/122 371/297/122 369/432/122
f 356/433/123 355/387/123 365/434/123 366/433/123
f 354/435/124 353/436/124 363/436/124 364/437/124
f 357/438/125 359/432/125 369/432/125 367/438/125
f 353/436/126 357/438/126 367/438/126 363/436/126
f 362/439/127 360/440/127 370/440/127 372/439/127
f 360/440/128 358/441/128 368/441/128 370/440/128
f 358/441/129 356/433/129 366/433/129 368/441/129
f 274/442/96 379/442/96 380/366/96 275/366/96
f 264/254/93 378/254/93 377/253/93 263/253/93
f 259/443/130 260/364/130 374/364/130 373/443/130
f 277/442/131 381/442/131 379/444/131 274/444/131
f 263/445/132 377/446/132 376/447/132 262/448/132
f 278/291/102 382/291/102 381/290/102 277/290/102
f 262/448/133 376/447/133 375/449/133 261/450/133
f 374/451/95 381/452/95 373/453/95
f 378/454/95 373/453/95 382/455/95
f 382/455/95 373/453/95 381/452/95
f 377/456/95 378/454/95 382/455/95 380/309/95
f 376/457/95 377/456/95 380/309/95
f 379/314/95 376/457/95 380/309/95
f 376/457/95 379/314/95 375/458/95
f 374/451/95 375/458/95 379/314/95 381/452/95
f 275/459/134 380/308/134 382/311/134 278/460/134
f 259/443/135 373/443/135 378/363/135 264/363/135
f 260/299/94 277/302/94 274/398/94 261/461/94
f 261/461/94 274/398/94 262/461/94
f 275/397/94 262/461/94 274/398/94
f 262/461/94 275/397/94 263/462/94
f 263/462/94 275/397/94 278/463/94 264/463/94
f 264/463/94 278/463/94 259/299/94
f 278/463/94 277/302/94 259/299/94
f 259/299/94 277/302/94 260/299/94
f 268/464/92 385/465/92 386/466/92 267/259/92
f 266/467/92 383/468/92 385/465/92 268/464/92
f 265/256/92 384/469/92 383/468/92 266/467/92
f 267/259/92 386/466/92 384/469/92 265/256/92
f 386/470/94 385/471/94 389/471/94 390/470/94
f 383/472/95 384/473/95 388/471/95 387/470/95
f 384/258/102 386/415/102 390/275/102 388/324/102
f 385/317/96 383/360/96 387/366/96 389/382/96
f 414/474/104 411/475/104 400/476/104 398/477/104
f 416/478/109 413/425/109 394/479/109 395/480/109
f 417/481/92 414/474/92 398/477/92 397/482/92
f 418/483/107 412/484/107 391/485/107 399/486/107
f 420/487/106 417/481/106 397/482/106 396/488/106
f 411/489/109 418/483/109 399/486/109 400/490/109
f 416/491/105 420/492/105 396/493/105 395/494/105
f 337/495/105 338/496/105 410/497/105 406/498/105
f 342/499/109 341/500/109 408/501/109 401/502/109
f 338/503/106 339/504/106 407/505/106 410/506/106
f 341/373/105 408/507/105 403/508/105 333/379/105
f 339/504/92 340/509/92 402/510/92 407/505/92
f 337/495/111 406/498/111 405/511/111 336/512/111
f 340/509/104 342/513/104 401/514/104 402/510/104
f 406/498/105 410/497/105 420/492/105 416/491/105
f 401/502/109 408/501/109 418/483/109 411/489/109
f 410/506/106 407/505/106 417/481/106 420/487/106
f 407/505/92 402/510/92 414/474/92 417/481/92
f 402/510/104 401/514/104 411/475/104 414/474/104
f 392/463/108 391/515/108 412/365/108 415/516/108
f 393/299/93 392/463/93 415/516/93 419/517/93
f 393/480/104 394/518/104 413/519/104 419/478/104
f 416/491/111 413/484/111 405/511/111 406/498/111
f 418/520/105 412/521/105 403/508/105 408/507/105
f 403/488/106 404/522/106 334/341/106 333/393/106
f 404/522/92 409/523/92 335/330/92 334/341/92
f 409/523/104 405/524/104 336/331/104 335/330/104
f 427/419/92 425/419/92 423/350/92 421/525/92
f 428/422/93 422/526/93 424/350/93 426/419/93
f 425/527/96 426/528/96 424/529/96 423/350/96
f 424/388/136 422/470/136 421/530/136 423/531/136
f 427/315/94 428/314/94 426/314/94 425/315/94
f 431/532/137 432/532/137 433/533/137
f 434/534/138 435/534/138 436/535/138
f 437/536/139 438/537/139 439/538/139
f 444/539/140 445/277/140 446/277/140
f 447/278/141 448/540/141 449/278/141
f 450/541/142 451/542/142 452/279/142
f 430/261/143 432/532/143 431/532/143 429/261/143
f 432/532/144 435/534/144 434/534/144 433/533/144
f 435/534/145 438/537/145 437/536/145 436/535/145
f 438/537/146 441/543/146 440/394/146 439/538/146
f 442/544/147 444/539/147 446/277/147 443/276/147
f 445/277/148 447/278/148 449/278/148 446/277/148
f 448/540/149 450/541/149 452/279/149 449/278/149
f 451/542/150 454/280/150 453/280/150 452/279/150
f 433/284/151 445/287/151 444/294/151 431/293/151
f 443/459/152 430/545/152 429/380/152 442/371/152
f 450/263/153 437/282/153 439/546/153 451/547/153
f 436/281/154 448/283/154 447/286/154 434/285/154
f 283/262/92 289/263/92 441/543/92 438/537/92 435/534/92 432/532/92 430/261/92
f 455/329/92 456/548/92 458/549/92 457/392/92
f 458/549/92 456/548/92 459/550/92 460/551/92
f 460/551/92 459/550/92 461/291/92
f 462/385/93 464/350/93 465/552/93 463/553/93
f 465/552/93 467/554/93 466/555/93 463/553/93
f 467/554/93 468/529/93 466/555/93
f 457/446/102 464/446/102 462/449/102 455/449/102
f 456/556/155 463/557/155 466/518/155 459/435/155
f 458/558/156 465/558/156 464/480/156 457/480/156
f 455/559/157 462/519/157 463/557/157 456/556/157
f 461/560/158 468/560/158 467/478/158 460/478/158
f 459/435/159 466/435/159 468/556/159 461/556/159
f 460/478/160 467/478/160 465/558/160 458/558/160
f 267/339/95 271/561/95 272/464/95 268/439/95
f 349/562/106 350/563/106 476/564/106 475/565/106
f 346/562/110 347/562/110 473/565/110 472/565/110
f 343/566/107 344/567/107 470/334/107 469/568/107
f 350/563/92 351/569/92 477/570/92 476/564/92
f 347/408/111 348/450/111 474/571/111 473/323/111
f 344/553/108 345/572/108 471/573/108 470/386/108
f 351/569/104 352/435/104 478/297/104 477/570/104
f 348/450/105 349/449/105 475/574/105 474/571/105
f 345/572/93 346/562/93 472/565/93 471/573/93
f 352/449/109 343/566/109 469/568/109 478/574/109
f 284/427/96 285/575/96 480/576/96 479/438/96
f 285/575/96 287/258/96 482/258/96 480/576/96
f 287/258/96 286/577/96 481/577/96 482/258/96
f 286/577/96 284/427/96 479/438/96 481/577/96
o charge_handle
v -0.339529 1.837534 -1.001940
v -0.370000 1.837534 -1.011840
v -0.370000 1.821982 -1.011840
v -0.370000 1.901662 -1.022208
v -0.339529 1.821982 -1.001940
v -0.333435 1.901662 -1.010327
v -0.320697 1.821982 -0.976020
v -0.310837 1.901662 -0.979224
v -0.320697 1.821982 -0.943981
v -0.310837 1.901662 -0.940777
v -0.339529 1.821982 -0.918061
v -0.333435 1.901662 -0.909673
v -0.370000 1.821982 -0.908160
v -0.370000 1.901662 -0.897792
v -0.400471 1.821982 -0.918061
v -0.406565 1.901662 -0.909673
v -0.419303 1.821982 -0.943981
v -0.429163 1.901662 -0.940777
v -0.419303 1.821982 -0.976020
v -0.429163 1.901662 -0.979224
v -0.400471 1.821982 -1.001940
v -0.406565 1.901662 -1.010327
v -0.320697 1.837534 -0.976020
v -0.320697 1.837534 -0.943981
v -0.339529 1.837534 -0.918061
v -0.370000 1.837534 -0.908160
v -0.400471 1.837534 -0.918061
v -0.419303 1.837534 -0.943981
v -0.419303 1.837534 -0.976020
v -0.400471 1.837534 -1.001940
v -0.415706 1.841940 -1.022909
v -0.443954 1.841940 -0.984029
v -0.370000 1.841940 -1.037760
v -0.443954 1.841940 -0.935971
v -0.415706 1.841940 -0.897091
v -0.370000 1.841940 -0.882240
v -0.324294 1.841940 -0.897091
v -0.296046 1.841940 -0.935971
v -0.296046 1.841940 -0.984029
v -0.324294 1.841940 -1.022909
v -0.370000 1.919662 -1.003546
v -0.344404 1.919662 -0.995229
v -0.328586 1.919662 -0.973457
v -0.328586 1.919662 -0.946544
v -0.344404 1.919662 -0.924771
v -0.370000 1.919662 -0.916455
v -0.395595 1.919662 -0.924771
v -0.411414 1.919662 -0.946544
v -0.411414 1.919662 -0.973457
v -0.395595 1.919662 -0.995229
v -0.176500 1.700000 -0.360000
v -0.176500 1.470000 -0.360000
v -0.176500 1.700000 0.120000
v -0.176500 1.470000 0.120000
vn 0.1760 -0.9844 -0.0000
vn 0.8090 -0.0000 -0.5878
vn 0.3000 0.2404 -0.9232
vn 0.1424 -0.9844 -0.1034
vn 1.0000 -0.0000 -0.0000
vn 0.7853 0.2404 -0.5705
vn 0.0544 -0.9844 0.1673
vn 0.8090 -0.0000 0.5878
vn 0.9707 0.2404 -0.0000
vn -0.0544 -0.9844 0.1673
vn 0.3090 -0.0000 0.9511
vn 0.7853 0.2404 0.5705
vn -0.1424 -0.9844 0.1034
vn -0.3090 -0.0000 0.9511
vn 0.3000 0.2404 0.9232
vn -0.1760 -0.9844 -0.0000
vn -0.8090 -0.0000 0.5878
vn -0.3000 0.2404 0.9232
vn -0.1424 -0.9844 -0.1034
vn -1.0000 -0.0000 -0.0000
vn -0.7853 0.2404 0.5705
vn -0.0544 -0.9844 -0.1673
vn -0.8090 -0.0000 -0.5878
vn -0.9707 0.2404 -0.0000
vn -0.7120 0.7021 -0.0000
vn -0.3090 -0.0000 -0.9511
vn -0.7853 0.2404 -0.5705
vn 0.1424 -0.9844 0.1034
vn 0.3090 -0.0000 -0.9511
vn -0.3000 0.2404 -0.9232
vn -0.0000 -1.0000 -0.0000
vn 0.0544 -0.9844 -0.1673
vn -0.0000 1.0000 -0.0000
vn -0.2200 0.7021 0.6772
vn 0.5761 0.7021 0.4185
vn 0.5761 0.7021 -0.4185
vn -0.2200 0.7021 -0.6772
vn 0.2200 0.7021 -0.6772
vn -0.5761 0.7021 -0.4185
vn -0.5761 0.7021 0.4185
vn 0.2200 0.7021 0.6772
vn 0.7121 0.7021 -0.0000
vt 0.332875 0.837125
vt 0.332875 0.839675
vt 0.320875 0.839675
vt 0.320875 0.837125
vt 0.344875 0.828125
vt 0.344875 0.837125
vt 0.332875 0.828125
vt 0.356875 0.839675
vt 0.356875 0.888125
vt 0.344875 0.888125
vt 0.344875 0.839675
vt 0.320875 0.828125
vt 0.332875 0.888125
vt 0.308875 0.837125
vt 0.308875 0.839675
vt 0.296875 0.839675
vt 0.296875 0.837125
vt 0.308875 0.828125
vt 0.320875 0.888125
vt 0.284875 0.839675
vt 0.284875 0.837125
vt 0.296875 0.828125
vt 0.308875 0.888125
vt 0.272875 0.839675
vt 0.272875 0.837125
vt 0.284875 0.828125
vt 0.296875 0.888125
vt 0.260875 0.839675
vt 0.260875 0.837125
vt 0.272875 0.828125
vt 0.284875 0.888125
vt 0.248875 0.839675
vt 0.248875 0.837125
vt 0.260875 0.828125
vt 0.272875 0.888125
vt 0.236875 0.839675
vt 0.236875 0.837125
vt 0.248875 0.828125
vt 0.260875 0.888125
vt 0.236875 0.828125
vt 0.248875 0.888125
vt 0.356875 0.828125
vt 0.356875 0.837125
vt 0.236875 0.888125
vt 0.326875 0.826925
vt 0.343803 0.821425
vt 0.354265 0.807025
vt 0.354265 0.789225
vt 0.343803 0.774825
vt 0.326875 0.769325
vt 0.309947 0.774825
vt 0.299485 0.789225
vt 0.299485 0.807025
vt 0.309947 0.821425
vt 0.283803 0.821425
vt 0.266875 0.826925
vt 0.249947 0.821425
vt 0.239485 0.807025
vt 0.239485 0.789225
vt 0.249947 0.774825
vt 0.266875 0.769325
vt 0.283803 0.774825
vt 0.294265 0.789225
vt 0.294265 0.807025
vt 0.236875 0.768125
s 0
usemtl mac10
f 505/578/161 521/579/161 520/580/161 506/581/161
f 487/582/162 483/583/162 505/578/162 489/584/162
f 515/585/163 486/586/163 488/587/163 522/588/163
f 483/583/164 522/588/164 521/579/164 505/578/164
f 489/584/165 505/578/165 506/581/165 491/589/165
f 522/588/166 488/587/166 490/590/166 521/579/166
f 507/591/167 519/592/167 518/593/167 508/594/167
f 491/589/168 506/581/168 507/591/168 493/595/168
f 521/579/169 490/590/169 492/596/169 520/580/169
f 508/594/170 518/593/170 517/597/170 509/598/170
f 493/595/171 507/591/171 508/594/171 495/599/171
f 520/580/172 492/596/172 494/600/172 519/592/172
f 509/598/173 517/597/173 516/601/173 510/602/173
f 495/599/174 508/594/174 509/598/174 497/603/174
f 519/592/175 494/600/175 496/604/175 518/593/175
f 510/602/176 516/601/176 514/605/176 511/606/176
f 497/603/177 509/598/177 510/602/177 499/607/177
f 518/593/178 496/604/178 498/608/178 517/597/178
f 511/606/179 514/605/179 513/609/179 512/610/179
f 499/607/180 510/602/180 511/606/180 501/611/180
f 517/597/181 498/608/181 500/612/181 516/601/181
f 512/610/182 513/609/182 515/613/182 484/614/182
f 501/611/183 511/606/183 512/610/183 503/615/183
f 516/601/184 500/612/184 502/616/184 514/605/184
f 502/616/185 500/612/185 530/612/185 531/616/185
f 503/615/186 512/610/186 484/614/186 485/617/186
f 514/605/187 502/616/187 504/618/187 513/609/187
f 506/581/188 520/580/188 519/592/188 507/591/188
f 485/619/189 484/620/189 483/583/189 487/582/189
f 513/609/190 504/618/190 486/621/190 515/613/190
f 485/622/191 487/623/191 489/624/191 491/625/191 493/626/191 495/627/191 497/628/191 499/629/191 501/630/191 503/631/191
f 484/620/192 515/585/192 522/588/192 483/583/192
f 524/632/193 523/633/193 532/634/193 531/635/193 530/636/193 529/637/193 528/638/193 527/639/193 526/640/193 525/641/193
f 498/608/194 496/604/194 528/604/194 529/608/194
f 494/600/195 492/596/195 526/596/195 527/600/195
f 490/590/196 488/587/196 524/587/196 525/590/196
f 486/621/197 504/618/197 532/618/197 523/621/197
f 488/587/198 486/586/198 523/586/198 524/587/198
f 504/618/199 502/616/199 531/616/199 532/618/199
f 500/612/200 498/608/200 529/608/200 530/612/200
f 496/604/201 494/600/201 527/600/201 528/604/201
f 492/596/202 490/590/202 525/590/202 526/596/202
f 534/642/165 533/642/165 535/642/165 536/642/165
o extended_magazine
v -0.258606 1.270000 -0.199227
v -0.260980 1.270000 0.140765
v -0.258606 -1.230000 -0.199227
v -0.260980 -1.230000 0.140764
v -0.468601 1.270000 -0.200693
v -0.470975 1.270000 0.139299
v -0.468601 -1.230000 -0.200693
v -0.470975 -1.230000 0.139298
v -0.260980 -0.120000 0.140764
v -0.258606 -0.120000 -0.199227
v -0.470975 -0.120000 0.139298
v -0.468601 -0.120000 -0.200693
v -0.258467 -1.200000 -0.219227
v -0.468462 -1.200000 -0.220693
v -0.258467 -0.120000 -0.219227
v -0.258606 -1.200000 -0.199227
v -0.468462 -0.120000 -0.220693
v -0.468601 -1.200000 -0.200693
v -0.279843 1.270000 -0.165375
v -0.281742 1.270000 0.106619
v -0.447839 1.270000 -0.166547
v -0.449738 1.270000 0.105446
v -0.279843 0.870000 -0.165375
v -0.281742 0.870000 0.106619
v -0.447839 0.870000 -0.166547
v -0.449738 0.870000 0.105446
vn -1.0000 -0.0000 -0.0070
vn 1.0000 -0.0000 0.0070
vn -0.0070 -0.0000 1.0000
vn -0.0000 1.0000 -0.0000
vn 0.0070 -0.0000 -1.0000
vn -0.0000 -1.0000 -0.0000
vn -0.0058 0.5547 0.8320
vt 0.000000 0.556000
vt 0.000000 -0.000000
vt 0.136000 -0.000000
vt 0.136000 0.556000
vt 0.288000 0.556000
vt 0.152000 0.556000
vt 0.152000 -0.000000
vt 0.288000 -0.000000
vt 0.456000 -0.000000
vt 0.456000 0.462620
vt 0.372000 0.462620
vt 0.372000 -0.000000
vt 0.456000 0.462620
vt 0.456000 0.538059
vt 0.372000 0.538059
vt 0.372000 0.462620
vt 0.288000 1.000000
vt 0.152000 1.000000
vt 0.152000 0.988000
vt 0.288000 1.000000
vt 0.288000 0.444000
vt 0.372000 0.444000
vt 0.372000 1.000000
vt 0.464000 0.833128
vt 0.456000 0.833128
vt 0.456000 0.749128
vt 0.464000 0.749128
vt 0.136000 0.988000
vt 0.136000 1.000000
vt 0.000000 1.000000
vt 0.144000 0.556000
vt 0.144000 0.988000
vt 0.144000 0.988000
vt 0.456000 0.552481
vt 0.372000 0.552481
vt 0.144000 0.556000
vt 0.456000 0.911927
vt 0.372000 0.911927
vt 0.288000 0.000000
vt 0.372000 0.000000
vt 0.456000 0.456000
vt 0.456000 0.320000
vt 0.464400 0.333600
vt 0.464400 0.442400
vt 0.540000 0.320000
vt 0.540000 0.456000
vt 0.531600 0.442400
vt 0.531600 0.333600
vt 0.523200 0.616000
vt 0.456000 0.616000
vt 0.456000 0.456000
vt 0.523200 0.456000
vt 0.456000 0.000000
vt 0.564800 -0.000000
vt 0.564800 0.160000
vt 0.456000 0.160000
vt 0.523200 0.749128
vt 0.456000 0.749128
vt 0.456000 0.616000
vt 0.523200 0.616000
vt 0.564800 0.320000
vt 0.456000 0.160000
vt 0.564800 0.160000
s 0
usemtl magazine
f 545/643/203 538/644/203 537/645/203 546/646/203
f 547/647/204 548/648/204 541/649/204 542/650/204
f 546/651/205 537/652/205 541/653/205 548/654/205
f 540/655/206 539/656/206 543/657/206 544/658/206
f 544/659/204 543/660/204 554/661/204 548/648/204 547/647/204
f 538/662/207 545/663/207 547/664/207 542/665/207
f 551/666/208 546/667/208 548/668/208 553/669/208
f 545/643/203 546/646/203 552/670/203 539/671/203 540/672/203
f 553/673/204 548/648/204 554/661/204 550/674/204
f 539/671/203 552/670/203 549/675/203
f 539/656/209 549/676/209 550/677/209 543/657/209
f 551/678/203 549/675/203 552/670/203 546/646/203
f 550/674/204 554/661/204 543/660/204
f 549/676/205 551/679/205 553/680/205 550/677/205
f 545/663/207 540/681/207 544/682/207 547/664/207
f 537/683/208 538/684/208 556/685/208 555/686/208
f 542/687/208 541/688/208 557/689/208 558/690/208
f 538/684/208 542/687/208 558/690/208 556/685/208
f 541/688/208 537/683/208 555/686/208 557/689/208
f 557/691/207 555/692/207 559/693/207 561/694/207
f 555/695/204 556/696/204 560/697/204 559/698/204
f 556/699/205 558/700/205 562/701/205 560/702/205
f 558/703/203 557/684/203 561/704/203 562/705/203
o strap
v -0.327700 1.140000 -1.640000
v -0.406100 1.140000 -1.640000
v -0.327700 1.050000 -1.700000
v -0.406100 1.050000 -1.700000
v -0.327700 0.750000 -1.720000
v -0.406100 0.750000 -1.720000
v -0.327700 0.470000 -1.690000
v -0.406100 0.470000 -1.690000
v -0.327700 0.470000 -1.640000
v -0.406100 0.470000 -1.640000
v -0.327700 0.630000 -1.600000
v -0.406100 0.630000 -1.600000
v -0.327700 0.830000 -1.620000
v -0.406100 0.830000 -1.620000
v -0.327700 1.010000 -1.610000
v -0.406100 1.010000 -1.610000
v -0.327700 1.140000 -1.580000
v -0.406100 1.140000 -1.580000
v -0.327700 1.140000 -1.630000
v -0.406100 1.140000 -1.630000
v -0.406100 1.050000 -1.690000
v -0.327700 1.050000 -1.690000
v -0.327700 0.750000 -1.710000
v -0.406100 0.750000 -1.710000
v -0.406100 0.481000 -1.685000
v -0.327700 0.481000 -1.685000
v -0.327700 0.481000 -1.644000
v -0.406100 0.481000 -1.644000
v -0.406100 0.630000 -1.610000
v -0.327700 0.630000 -1.610000
v -0.327700 0.830000 -1.630000
v -0.406100 0.830000 -1.630000
v -0.406100 1.140000 -1.590000
v -0.327700 1.140000 -1.590000
v -0.406100 1.010000 -1.620000
v -0.327700 1.010000 -1.620000
vn -0.0000 0.5547 -0.8321
vn -0.0000 0.0665 -0.9978
vn -0.0000 -0.1065 -0.9943
vn -0.0000 -1.0000 -0.0000
vn -0.0000 -0.2425 0.9701
vn -0.0000 0.0995 0.9950
vn -0.0000 -0.0555 0.9985
vn -0.0000 -0.2249 0.9744
vn -0.0000 -0.5547 0.8321
vn -0.0000 -0.0665 0.9978
vn -0.0000 0.0925 0.9957
vn -0.0000 1.0000 -0.0000
vn -0.0000 0.2225 -0.9749
vn -0.0000 -0.0995 -0.9950
vn -0.0000 0.0555 -0.9985
vn -0.0000 0.2249 -0.9744
vn 1.0000 -0.0000 -0.0000
vn -1.0000 -0.0000 -0.0000
vt 0.937500 0.906250
vt 0.906250 0.906250
vt 0.906250 0.875000
vt 0.937500 0.875000
vt 0.906250 0.812500
vt 0.937500 0.812500
vt 0.906250 0.718750
vt 0.937500 0.718750
vt 0.843750 0.906250
vt 0.843750 0.875000
vt 0.875000 0.875000
vt 0.875000 0.906250
vt 0.937500 0.781250
vt 0.875000 0.812500
vt 0.875000 0.718750
vt 0.875000 0.781250
vt 0.906250 0.781250
vt 1.000000 0.812500
vt 1.000000 0.875000
vt 1.000000 0.906250
vt 1.000000 0.718750
vt 1.000000 0.781250
vt 0.968750 0.718750
vt 0.968750 0.750000
vt 0.968750 0.812500
vt 0.968750 0.875000
vt 0.968750 0.906250
vt 1.000000 0.843750
vt 1.000000 0.750000
s 0
usemtl mac10
f 564/706/210 563/707/210 565/708/210 566/709/210
f 566/709/211 565/708/211 567/710/211 568/711/211
f 568/711/212 567/710/212 569/712/212 570/713/212
f 570/714/213 569/715/213 571/716/213 572/717/213
f 572/713/214 571/713/214 573/718/214 574/718/214
f 574/718/215 573/718/215 575/711/215 576/711/215
f 576/711/216 575/711/216 577/709/216 578/709/216
f 578/709/217 577/709/217 579/706/217 580/706/217
f 584/716/218 581/717/218 582/717/218 583/716/218
f 585/719/219 584/716/219 583/716/219 586/719/219
f 588/720/220 585/719/220 586/719/220 587/720/220
f 589/716/221 588/715/221 587/715/221 590/716/221
f 592/721/222 589/720/222 590/712/222 591/722/222
f 593/719/223 592/721/223 591/722/223 594/710/223
f 598/716/224 593/719/224 594/710/224 597/708/224
f 597/708/225 595/707/225 596/717/225 598/716/225
f 567/723/226 565/724/226 584/724/226 585/723/226
f 565/724/226 563/725/226 581/725/226 584/724/226
f 569/726/226 567/723/226 585/723/226 588/726/226
f 571/726/226 569/726/226 588/726/226 589/726/226
f 573/727/226 571/726/226 589/726/226 592/727/226
f 575/723/226 573/727/226 592/727/226 593/723/226
f 577/724/226 575/723/226 593/723/226 598/724/226
f 577/724/226 598/724/226 596/725/226 579/725/226
f 580/713/227 595/728/227 597/729/227 578/729/227
f 576/730/227 578/729/227 597/729/227 594/730/227
f 574/731/227 576/730/227 594/730/227 591/731/227
f 572/732/227 574/731/227 591/731/227 590/732/227
f 570/732/227 572/732/227 590/732/227 587/732/227
f 568/733/227 570/732/227 587/732/227 586/733/227
f 566/734/227 568/733/227 586/733/227 583/729/227
f 564/728/227 566/734/227 583/729/227 582/728/227
